{"title":"The Watch 2012 DVDRip XViD-PLAYNOW ","uid":7777749,"size":1215408128,"categoryP":"video","categoryS":"movies","magnet":"?xt=urn:btih:7e38b605e2ec232b746e5065d3fa1f91936d3ba6&amp;dn=The+Watch+2012+DVDRip+XViD-PLAYNOW+&amp;tr=udp%3A%2F%2Ftracker.openbittorrent.com%3A80&amp;tr=udp%3A%2F%2Fopen.demonii.com%3A1337&amp;tr=udp%3A%2F%2Ftracker.coppersurfer.tk%3A6969&amp;tr=udp%3A%2F%2Fexodus.desync.com%3A6969","seeders":1,"leechers":0,"uploader":"Acesn8s","files":1,"time":1351698307,"description":" &lt;a href=&quot;http://img31.mtime.cn/CMS/Gallery/2012/06/18/181049.54009555_900.jpg&quot; rel=&quot;nofollow&quot; target=&quot;_NEW&quot;&gt;http://img31.mtime.cn/CMS/Gallery/2012/06/18/181049.54009555_900.jpg&lt;/a&gt;\n &lt;a href=&quot;\nhttp://www.imdb.com/title/tt1298649/&quot; rel=&quot;nofollow&quot; target=&quot;_NEW&quot;&gt;\nhttp://www.imdb.com/title/tt1298649/&lt;/a&gt;\n\n\n\nFormat                                   : AVI\n\nFormat/Info                              : Audio Video Interleave\n\nFile size                                : 1.13 GiB\n\nDuration                                 : 1h 42mn\n\nOverall bit rate                         : 1 586 Kbps\n\nWriting application                      : VirtualDubMod 1.5.4.1 (build 2178/release)\n\nWriting library                          : VirtualDubMod build 2178/release\n\n\n\nVideo\n\nID                                       : 0\n\nFormat                                   : MPEG-4 Visual\n\nFormat profile                           : Advanced Simple@L5\n\nFormat settings, BVOP                    : No\n\nFormat settings, QPel                    : No\n\nFormat settings, GMC                     : No warppoints\n\nFormat settings, Matrix                  : Custom\n\nCodec ID                                 : XVID\n\nCodec ID/Hint                            : XviD\n\nDuration                                 : 1h 42mn\n\nBit rate                                 : 1 387 Kbps\n\nWidth                                    : 720 pixels\n\nHeight                                   : 304 pixels\n\nDisplay aspect ratio                     : 2.35:1\n\nFrame rate                               : 25.000 fps\n\nColor space                              : YUV\n\nChroma subsampling                       : 4:2:0\n\nBit depth                                : 8 bits\n\nScan type                                : Progressive\n\nCompression mode                         : Lossy\n\nBits/(Pixel*Frame)                       : 0.253\n\nStream size                              : 1 014 MiB (87%)\n\nWriting library                          : XviD 64\n\n\n\nAudio\n\nID                                       : 1\n\nFormat                                   : AC-3\n\nFormat/Info                              : Audio Coding 3\n\nMode extension                           : CM (complete main)\n\nFormat settings, Endianness              : Big\n\nCodec ID                                 : 2000\n\nDuration                                 : 1h 42mn\n\nBit rate mode                            : Constant\n\nBit rate                                 : 192 Kbps\n\nChannel(s)                               : 2 channels\n\nChannel positions                        : Front: L R\n\nSampling rate                            : 48.0 KHz\n\nBit depth                                : 16 bits\n\nCompression mode                         : Lossy\n\nStream size                              : 140 MiB (12%)\n\nAlignment                                : Split accross interleaves\n\nInterleave, duration                     : 96 ms (2.40 video frames)\n\nInterleave, preload duration             : 96 ms\n\nLanguage                                 : English\n &lt;a href=&quot;\nhttp://lookpic.com/O/i2/875/fNkvAXfO.png&quot; rel=&quot;nofollow&quot; target=&quot;_NEW&quot;&gt;\nhttp://lookpic.com/O/i2/875/fNkvAXfO.png&lt;/a&gt; &lt;a href=&quot;\nhttp://lookpic.com/O/i2/67/YS1WqhBo.png&quot; rel=&quot;nofollow&quot; target=&quot;_NEW&quot;&gt;\nhttp://lookpic.com/O/i2/67/YS1WqhBo.png&lt;/a&gt; &lt;a href=&quot;\nhttp://lookpic.com/O/i2/1643/D3qc74eb.png&quot; rel=&quot;nofollow&quot; target=&quot;_NEW&quot;&gt;\nhttp://lookpic.com/O/i2/1643/D3qc74eb.png&lt;/a&gt;","torrent":{"xt":"urn:btih:7e38b605e2ec232b746e5065d3fa1f91936d3ba6","amp;dn":"The+Watch+2012+DVDRip+XViD-PLAYNOW+","amp;tr":["udp%3A%2F%2Ftracker.openbittorrent.com%3A80","udp%3A%2F%2Fopen.demonii.com%3A1337","udp%3A%2F%2Ftracker.coppersurfer.tk%3A6969","udp%3A%2F%2Fexodus.desync.com%3A6969"],"infoHash":"7e38b605e2ec232b746e5065d3fa1f91936d3ba6","infoHashBuffer":{"type":"Buffer","data":[126,56,182,5,226,236,35,43,116,110,80,101,211,250,31,145,147,109,59,166]},"announce":[],"urlList":[]}}